<svg width="173" height="36" viewBox="0 0 173 36" fill="none" xmlns="http://www.w3.org/2000/svg">
<path d="M29.8398 16.9045C30.0314 17.2378 30.1322 17.6156 30.1322 18C30.1322 18.3845 30.0314 18.7622 29.8398 19.0955L25.531 26.5289C25.3385 26.8608 25.0622 27.1363 24.7298 27.3279C24.3975 27.5194 24.0206 27.6204 23.637 27.6206L15.0656 27.6206C14.6846 27.6177 14.3109 27.5155 13.9815 27.324C13.652 27.1326 13.3782 26.8585 13.187 26.5289L8.87818 19.0955C8.68663 18.7622 8.58582 18.3845 8.58582 18C8.58582 17.6156 8.68663 17.2378 8.87818 16.9045L11.2583 12.8001L16.5546 21.8575C16.6418 22.0126 16.7691 22.1413 16.9232 22.2302C17.0772 22.3191 17.2524 22.3649 17.4302 22.3628L21.2877 22.3628C21.4656 22.3649 21.6408 22.3191 21.7948 22.2302C21.9489 22.1413 22.0762 22.0126 22.1634 21.8575L24.0921 18.4899C24.1795 18.3386 24.2255 18.167 24.2255 17.9923C24.2255 17.8176 24.1795 17.646 24.0921 17.4947L15.3973 2.45046C15.0956 1.92868 14.662 1.49541 14.14 1.19412C13.618 0.892825 13.0259 0.7341 12.4232 0.733871L11.644 0.733871C10.9544 0.733608 10.2769 0.914936 9.6797 1.25961C9.08244 1.60428 8.58648 2.10015 8.24169 2.69734L0.526706 16.0404C0.181668 16.6372 -7.84862e-07 17.3145 -7.54727e-07 18.0039C-7.24593e-07 18.6933 0.181668 19.3705 0.526706 19.9673L8.2417 33.3104C8.58697 33.9069 9.08314 34.402 9.68036 34.746C10.2776 35.0899 10.9548 35.2707 11.644 35.27L27.074 35.27C27.7636 35.2703 28.441 35.089 29.0383 34.7443C29.6355 34.3996 30.1315 33.9037 30.4763 33.3066L38.1913 19.9635C38.5363 19.3666 38.718 18.6894 38.718 18C38.718 17.3106 38.5363 16.6334 38.1913 16.0366L30.4763 2.69348C30.1315 2.09629 29.6355 1.60042 29.0383 1.25575C28.441 0.911074 27.7636 0.729754 27.074 0.730014L20.5162 0.730014L29.8398 16.9045Z" fill="#475BE8"/>
<path d="M52.468 28V10H59.9055C60.0805 10 60.3055 10.0083 60.5805 10.025C60.8555 10.0333 61.1097 10.0583 61.343 10.1C62.3847 10.2583 63.243 10.6042 63.918 11.1375C64.6014 11.6708 65.1055 12.3458 65.4305 13.1625C65.7639 13.9708 65.9305 14.8708 65.9305 15.8625C65.9305 16.8458 65.7639 17.7458 65.4305 18.5625C65.0972 19.3708 64.5889 20.0417 63.9055 20.575C63.2305 21.1083 62.3764 21.4542 61.343 21.6125C61.1097 21.6458 60.8514 21.6708 60.568 21.6875C60.293 21.7042 60.0722 21.7125 59.9055 21.7125H55.4805V28H52.468ZM55.4805 18.9H59.7805C59.9472 18.9 60.1347 18.8917 60.343 18.875C60.5514 18.8583 60.743 18.825 60.918 18.775C61.418 18.65 61.8097 18.4292 62.093 18.1125C62.3847 17.7958 62.5889 17.4375 62.7055 17.0375C62.8305 16.6375 62.893 16.2458 62.893 15.8625C62.893 15.4792 62.8305 15.0875 62.7055 14.6875C62.5889 14.2792 62.3847 13.9167 62.093 13.6C61.8097 13.2833 61.418 13.0625 60.918 12.9375C60.743 12.8875 60.5514 12.8583 60.343 12.85C60.1347 12.8333 59.9472 12.825 59.7805 12.825H55.4805V18.9ZM68.4348 28V14.5H71.0973V17.7875L70.7723 17.3625C70.939 16.9125 71.1598 16.5042 71.4348 16.1375C71.7181 15.7625 72.0556 15.4542 72.4473 15.2125C72.7806 14.9875 73.1473 14.8125 73.5473 14.6875C73.9556 14.5542 74.3723 14.475 74.7973 14.45C75.2223 14.4167 75.6348 14.4333 76.0348 14.5V17.3125C75.6348 17.1958 75.1723 17.1583 74.6473 17.2C74.1306 17.2417 73.664 17.3875 73.2473 17.6375C72.8306 17.8625 72.489 18.15 72.2223 18.5C71.964 18.85 71.7723 19.25 71.6473 19.7C71.5223 20.1417 71.4598 20.6208 71.4598 21.1375V28H68.4348ZM84.1385 28.375C82.7885 28.375 81.6094 28.0708 80.601 27.4625C79.5927 26.8542 78.8094 26.0167 78.251 24.95C77.701 23.875 77.426 22.6417 77.426 21.25C77.426 19.8333 77.7094 18.5917 78.276 17.525C78.8427 16.4583 79.6302 15.625 80.6385 15.025C81.6469 14.425 82.8135 14.125 84.1385 14.125C85.4969 14.125 86.6802 14.4292 87.6885 15.0375C88.6969 15.6458 89.4802 16.4875 90.0385 17.5625C90.5969 18.6292 90.876 19.8583 90.876 21.25C90.876 22.65 90.5927 23.8875 90.026 24.9625C89.4677 26.0292 88.6844 26.8667 87.676 27.475C86.6677 28.075 85.4885 28.375 84.1385 28.375ZM84.1385 25.55C85.3385 25.55 86.2302 25.15 86.8135 24.35C87.3969 23.55 87.6885 22.5167 87.6885 21.25C87.6885 19.9417 87.3927 18.9 86.801 18.125C86.2094 17.3417 85.3219 16.95 84.1385 16.95C83.3302 16.95 82.6635 17.1333 82.1385 17.5C81.6219 17.8583 81.2385 18.3625 80.9885 19.0125C80.7385 19.6542 80.6135 20.4 80.6135 21.25C80.6135 22.5583 80.9094 23.6042 81.501 24.3875C82.101 25.1625 82.9802 25.55 84.1385 25.55ZM100.118 28.375C98.801 28.375 97.6968 28.0625 96.8051 27.4375C95.9135 26.8125 95.2426 25.9625 94.7926 24.8875C94.3426 23.8042 94.1176 22.5917 94.1176 21.25C94.1176 19.8917 94.3426 18.675 94.7926 17.6C95.2426 16.525 95.901 15.6792 96.7676 15.0625C97.6426 14.4375 98.7218 14.125 100.005 14.125C101.28 14.125 102.384 14.4375 103.318 15.0625C104.259 15.6792 104.988 16.525 105.505 17.6C106.022 18.6667 106.28 19.8833 106.28 21.25C106.28 22.6 106.026 23.8125 105.518 24.8875C105.009 25.9625 104.293 26.8125 103.368 27.4375C102.443 28.0625 101.359 28.375 100.118 28.375ZM93.6051 34V14.5H96.2676V23.975H96.6426V34H93.6051ZM99.6551 25.675C100.438 25.675 101.084 25.4792 101.593 25.0875C102.101 24.6958 102.476 24.1667 102.718 23.5C102.968 22.825 103.093 22.075 103.093 21.25C103.093 20.4333 102.968 19.6917 102.718 19.025C102.468 18.35 102.08 17.8167 101.555 17.425C101.03 17.025 100.363 16.825 99.5551 16.825C98.7885 16.825 98.1635 17.0125 97.6801 17.3875C97.1968 17.7542 96.8385 18.2708 96.6051 18.9375C96.3801 19.5958 96.2676 20.3667 96.2676 21.25C96.2676 22.125 96.3801 22.8958 96.6051 23.5625C96.8385 24.2292 97.201 24.75 97.6926 25.125C98.1926 25.4917 98.8468 25.675 99.6551 25.675ZM107.096 28L112.033 21.175L107.196 14.5H110.746L113.783 18.8125L116.771 14.5H120.321L115.483 21.175L120.446 28H116.896L113.783 23.5375L110.646 28H107.096Z" fill="#11142D"/>
</svg>

